<?xml version="1.0" encoding="iso-8859-1"?>
<!-- Generator: Adobe Illustrator 19.0.0, SVG Export Plug-In . SVG Version: 6.00 Build 0)  -->
<svg version="1.1" id="Layer_1" xmlns="http://www.w3.org/2000/svg" xmlns:xlink="http://www.w3.org/1999/xlink" x="0px" y="0px"
	 viewBox="0 0 502.001 502.001" style="enable-background:new 0 0 502.001 502.001;" xml:space="preserve">
<g>
	<polygon style="fill:#EBD2B4;" points="431.295,169.648 251.001,33.328 70.706,169.648 70.706,468.674 431.295,468.674 	"/>
	<g>
		<path style="fill:#FF2E3D;" d="M315.326,185.183c-30.863,0-56.809,21.019-64.326,49.52c-7.517-28.501-33.463-49.52-64.326-49.52
			c-36.743,0-66.529,29.786-66.529,66.529s40.548,69.626,66.529,95.607C219.057,379.702,251,409.001,251,409.001
			s33.705-31.061,64.326-61.682c25.981-25.981,66.529-58.865,66.529-95.607S352.069,185.183,315.326,185.183z"/>
		<g>
			<path d="M11.969,201.522l-8,6.049c-4.405,3.331-5.276,9.603-1.945,14.008c1.966,2.601,4.957,3.969,7.984,3.969
				c2.101,0,4.219-0.659,6.024-2.024l8-6.049c4.405-3.331,5.276-9.603,1.945-14.008C22.647,199.062,16.375,198.191,11.969,201.522z"
				/>
			<path d="M257.032,25.351c-3.568-2.698-8.494-2.698-12.062,0L36.434,183.024c-4.405,3.331-5.276,9.602-1.945,14.008
				s9.603,5.277,14.008,1.945l12.209-9.231v278.927c0,5.523,4.477,10,10,10h360.59c5.522,0,10-4.477,10-10V189.746l44.674,33.778
				c1.805,1.365,3.923,2.024,6.023,2.024c3.027,0,6.019-1.369,7.984-3.969c3.331-4.406,2.46-10.677-1.945-14.008L257.032,25.351z
				 M421.296,458.674H80.706v-284.05l170.295-128.76l170.295,128.76L421.296,458.674L421.296,458.674z"/>
			<path d="M246.023,71.149c-3.331,4.405-2.46,10.677,1.945,14.008l20.924,15.821c1.805,1.365,3.923,2.024,6.023,2.024
				c3.027,0,6.019-1.369,7.984-3.969c3.331-4.405,2.46-10.677-1.945-14.008L260.03,69.204
				C255.626,65.872,249.354,66.744,246.023,71.149z"/>
			<path d="M293.968,119.938l99,74.854c1.805,1.365,3.923,2.024,6.023,2.024c3.027,0,6.019-1.369,7.984-3.969
				c3.331-4.406,2.46-10.677-1.945-14.008l-99-74.854c-4.405-3.331-10.678-2.458-14.008,1.945
				C288.692,110.336,289.563,116.607,293.968,119.938z"/>
			<path d="M315.327,175.182c-26.509,0-50.517,13.656-64.326,35.044c-13.81-21.388-37.817-35.044-64.326-35.044
				c-42.198,0-76.529,34.331-76.529,76.529c0,35.778,32.045,66.578,57.793,91.327c4.135,3.974,8.041,7.729,11.664,11.352
				c32.164,32.164,64.316,61.686,64.637,61.98c1.913,1.754,4.336,2.63,6.76,2.63c2.432,0,4.862-0.882,6.776-2.646
				c0.339-0.312,34.207-31.552,64.621-61.965c3.624-3.624,7.529-7.378,11.665-11.353c25.748-24.748,57.792-55.548,57.792-91.326
				C391.855,209.513,357.525,175.182,315.327,175.182z M320.204,328.617c-4.209,4.045-8.185,7.866-11.948,11.63
				c-22.021,22.02-45.891,44.498-57.266,55.113c-11.076-10.313-34.152-32.021-57.244-55.113c-3.764-3.763-7.739-7.584-11.947-11.629
				c-23.013-22.119-51.653-49.646-51.653-76.907c0-31.17,25.359-56.529,56.529-56.529c25.648,0,48.124,17.3,54.656,42.071
				c1.158,4.39,5.129,7.45,9.669,7.45c4.541,0,8.512-3.06,9.669-7.45c6.533-24.771,29.009-42.071,54.657-42.071
				c31.17,0,56.528,25.359,56.528,56.529C371.855,278.971,343.215,306.499,320.204,328.617z"/>
			<path d="M321.116,279.5l-9.51,9.374c-3.933,3.877-3.979,10.208-0.102,14.142c1.957,1.985,4.539,2.98,7.122,2.98
				c2.535,0,5.072-0.958,7.021-2.878l9.51-9.374c3.933-3.877,3.979-10.208,0.102-14.142
				C331.381,275.667,325.048,275.622,321.116,279.5z"/>
			<path d="M286.812,313.313l-39.662,39.096c-3.933,3.877-3.979,10.208-0.102,14.142c1.957,1.985,4.539,2.98,7.122,2.98
				c2.535,0,5.072-0.958,7.02-2.878l39.662-39.096c3.933-3.877,3.979-10.208,0.102-14.142
				C297.077,309.48,290.746,309.436,286.812,313.313z"/>
		</g>
	</g>
</g>
<g>
</g>
<g>
</g>
<g>
</g>
<g>
</g>
<g>
</g>
<g>
</g>
<g>
</g>
<g>
</g>
<g>
</g>
<g>
</g>
<g>
</g>
<g>
</g>
<g>
</g>
<g>
</g>
<g>
</g>
</svg>
