<?xml version="1.0" encoding="iso-8859-1"?>
<!-- Generator: Adobe Illustrator 19.0.0, SVG Export Plug-In . SVG Version: 6.00 Build 0)  -->
<svg version="1.1" id="Layer_1" xmlns="http://www.w3.org/2000/svg" xmlns:xlink="http://www.w3.org/1999/xlink" x="0px" y="0px"
	 viewBox="0 0 318.965 318.965" style="enable-background:new 0 0 318.965 318.965;" xml:space="preserve">
<g>
	<g>
		<path style="fill:#5C9EA0;" d="M303.676,253.518c-11.151-37.754-67.121-33.566-91.279-44.408
			c-24.157-10.842-20.386-47.219-23.449-53.548h-58.932c-3.058,6.329,0.714,42.711-23.449,53.548
			c-24.157,10.842-80.133,6.655-91.279,44.408c-6.149,20.824-5.857,27.193-7.554,50.26c0,0,76.8,15.187,150.014,15.187
			s153.488-15.187,153.488-15.187C309.533,280.705,309.825,274.342,303.676,253.518z"/>
		<path style="fill:#44919B;" d="M181.186,217.422c24.157,10.842,80.133,6.655,91.279,44.408c5.857,19.83,5.868,26.552,7.324,47.073
			c19.234-2.816,31.442-5.126,31.442-5.126c-1.697-23.067-1.405-29.435-7.554-50.26c-11.151-37.754-67.121-33.566-91.279-44.408
			c-24.157-10.842-20.386-47.219-23.449-53.548h-31.206C157.748,155.562,157.029,206.586,181.186,217.422z"/>
		<path style="fill:#E8C59E;" d="M310.247,289.743l-54.559,22.404l0.067,0.006c32.538-4.041,55.475-8.38,55.475-8.38
			C310.831,298.292,310.539,293.756,310.247,289.743z"/>
		<path style="fill:#E8C59E;" d="M8.718,289.748c-0.292,4.013-0.585,8.549-0.989,14.029c0,0,22.359,4.423,54.447,8.493l1.085-0.118
			L8.718,289.748z"/>
		<path style="fill:#DDB58E;" d="M279.789,308.903c19.234-2.816,31.442-5.126,31.442-5.126c-0.405-5.48-0.697-10.022-0.989-14.035
			l-30.902,12.691C279.479,304.441,279.626,306.582,279.789,308.903z"/>
		<g>
			<path style="fill:#348789;" d="M159.423,206.619c-0.646,0-1.287-0.017-1.928-0.045l-3.125,22.584
				c1.664,0.118,3.367,0.18,5.12,0.18s3.457-0.067,5.12-0.185l-3.125-22.589C160.8,206.603,160.114,206.619,159.423,206.619z"/>
			<path style="fill:#348789;" d="M173.615,204.422L180.809,226c2.951-0.967,5.677-2.091,8.172-3.299l-9.409-20.453
				C177.701,203.045,175.706,203.787,173.615,204.422z"/>
			<path style="fill:#348789;" d="M165.628,206.187l3.125,22.55c2.833-0.377,5.525-0.911,8.066-1.574l-7.228-21.69
				C168.292,205.765,166.977,206.001,165.628,206.187z"/>
			<path style="fill:#348789;" d="M139.346,202.387l-9.415,20.465c2.518,1.18,5.261,2.276,8.217,3.221l7.189-21.572
				C143.247,203.882,141.24,203.163,139.346,202.387z"/>
			<path style="fill:#348789;" d="M121.079,191.534c0,0-3.389,4.817-11.843,16.21c0,0,2.085,2.569,6.155,5.93l11.061-18.166
				C123.046,193.242,121.079,191.534,121.079,191.534z"/>
			<path style="fill:#348789;" d="M149.385,205.518l-7.228,21.69c2.552,0.646,5.244,1.169,8.077,1.54l3.119-22.539
				C152.004,206.029,150.677,205.799,149.385,205.518z"/>
			<path style="fill:#348789;" d="M129.977,197.722l-11.275,18.514c2.147,1.557,4.654,3.181,7.515,4.738l9.33-20.279
				C133.512,199.717,131.646,198.706,129.977,197.722z"/>
			<path style="fill:#348789;" d="M183.344,200.499l9.325,20.274c2.833-1.596,5.306-3.26,7.414-4.856l-11.264-18.497
				C187.2,198.425,185.362,199.481,183.344,200.499z"/>
			<path style="fill:#348789;" d="M209.16,207.406c-8.453-11.393-12.315-15.873-12.315-15.873s-1.647,1.512-4.558,3.575
				l11.061,18.16C207.204,209.936,209.16,207.406,209.16,207.406z"/>
			<path style="fill:#2F7F7F;" d="M181.186,217.422c3.17,1.422,6.891,2.585,10.983,3.62c0.169-0.09,0.337-0.185,0.5-0.275
				c2.833-1.596,5.306-3.26,7.414-4.856c1.208-0.911,2.293-1.799,3.26-2.636c3.856-3.339,5.812-5.868,5.812-5.868
				c-8.453-11.393-12.315-15.873-12.315-15.873s-1.647,1.512-4.558,3.575c-1.006,0.714-2.17,1.495-3.468,2.304
				c-1.624,1.012-3.457,2.063-5.474,3.08c-1.197,0.601-2.456,1.192-3.771,1.754c-1.877,0.798-3.867,1.54-5.958,2.175
				c-1.304,0.399-2.653,0.753-4.03,1.057c-0.281,0.062-0.568,0.124-0.849,0.18C171.895,210.846,175.953,215.078,181.186,217.422z"/>
			<path style="fill:#DB8C19;" d="M126.453,195.513l-11.061,18.166c0.984,0.815,2.091,1.675,3.311,2.563l11.275-18.514
				C128.673,196.952,127.498,196.21,126.453,195.513z"/>
			<path style="fill:#DB8C19;" d="M135.547,200.695l-9.33,20.279c1.18,0.641,2.417,1.27,3.715,1.877l9.415-20.465
				C138.025,201.848,136.755,201.28,135.547,200.695z"/>
			<path style="fill:#DB8C19;" d="M145.343,204.495l-7.189,21.572c1.293,0.41,2.625,0.792,4.002,1.141l7.228-21.69
				C148.002,205.225,146.653,204.883,145.343,204.495z"/>
			<path style="fill:#DB8C19;" d="M153.353,206.209l-3.119,22.539c1.349,0.174,2.726,0.315,4.142,0.41l3.125-22.584
				C156.096,206.518,154.713,206.389,153.353,206.209z"/>
			<path style="fill:#DB8C19;" d="M192.287,195.114c-1.006,0.714-2.17,1.495-3.468,2.304l11.264,18.497
				c1.208-0.911,2.293-1.799,3.26-2.636L192.287,195.114z"/>
			<path style="fill:#DB8C19;" d="M179.573,202.247l9.409,20.453c1.293-0.624,2.524-1.27,3.687-1.928l-9.325-20.274
				C182.147,201.1,180.888,201.685,179.573,202.247z"/>
			<path style="fill:#DB8C19;" d="M169.585,205.478l7.228,21.69c1.371-0.354,2.704-0.748,3.991-1.169l-7.194-21.578
				C172.311,204.821,170.962,205.175,169.585,205.478z"/>
			<path style="fill:#DB8C19;" d="M161.486,206.569l3.125,22.589c1.411-0.101,2.793-0.242,4.137-0.422l-3.125-22.55
				C164.274,206.372,162.891,206.507,161.486,206.569z"/>
		</g>
		<g>
			
				<ellipse transform="matrix(-0.177 0.9842 -0.9842 -0.177 385.6597 -85.374)" style="fill:#DDB58E;" cx="228.525" cy="118.558" rx="21.386" ry="11.629"/>
			
				<ellipse transform="matrix(-0.9842 0.177 -0.177 -0.9842 200.095 219.2799)" style="fill:#E8C59E;" cx="90.267" cy="118.565" rx="11.629" ry="21.386"/>
			<path style="fill:#E8C59E;" d="M159.996,22.246c-70.213,0-71.517,41.952-70.865,75.164c0.866,43.903,9.19,102.104,70.291,110.76
				c61.276-8.678,71.629-66.857,70.426-110.76C229.079,69.505,230.209,22.246,159.996,22.246z"/>
			<path style="fill:#DDB58E;" d="M229.849,97.411c-0.534-19.464-0.152-48.349-23.697-64.036c5.992,30.306,7.475,75.344,5.396,95.91
				c-1.714,16.969-6.441,31.869-16.738,47.326c-18.717,28.103-35.387,31.565-35.387,31.565l0,0
				C220.699,199.492,231.052,141.313,229.849,97.411z"/>
		</g>
		<path style="fill:#DDB58E;" d="M89.132,97.579c0,0,8.526-30.902,35.545-30.711c22.286,0.157,21.96,19.672,34.735,19.678l0,0l0,0
			l0,0l0,0c12.776-0.006,12.455-19.52,34.735-19.678c27.024-0.191,35.545,30.711,35.545,30.711V56.133H89.12v41.446
			C89.12,97.579,89.132,97.579,89.132,97.579z"/>
		<path style="fill:#393C3D;" d="M240.624,61.225c-1.675,2.597-3.681,4.474-5.997,5.57c0.815-23.32-14.479-38.979-14.479-38.979
			c2.023,3.586,1.259,8.538,0.742,10.022c-7.796-9.651-18.374-16.058-36.759-20.043c-17.609-3.822-24.579-17.519-24.714-17.789V0
			v0.006V0v0.006c-0.135,0.264-7.099,13.967-24.714,17.789c-18.385,3.985-28.963,10.393-36.759,20.043
			c-0.517-1.489-1.282-6.436,0.742-10.022c0,0-15.294,15.659-14.479,38.979c-2.316-1.09-4.322-2.973-5.997-5.57
			c-1.102,17.019-1.04,22.977,1.709,42.75c1.99-2.985,5.812-6.891,9.207-6.402c0,0,1.141-35.112,35.545-34.865
			c22.286,0.157,21.96,19.672,34.735,19.678l0,0l0,0l0,0l0,0c12.776-0.006,12.455-19.52,34.735-19.678
			c34.409-0.247,35.545,34.865,35.545,34.865c3.395-0.489,7.222,3.417,9.207,6.402C241.664,84.202,241.726,78.245,240.624,61.225z"
			/>
	</g>
</g>
<g>
</g>
<g>
</g>
<g>
</g>
<g>
</g>
<g>
</g>
<g>
</g>
<g>
</g>
<g>
</g>
<g>
</g>
<g>
</g>
<g>
</g>
<g>
</g>
<g>
</g>
<g>
</g>
<g>
</g>
</svg>
