<?xml version="1.0" encoding="iso-8859-1"?>
<!-- Generator: Adobe Illustrator 19.0.0, SVG Export Plug-In . SVG Version: 6.00 Build 0)  -->
<svg version="1.1" id="Layer_1" xmlns="http://www.w3.org/2000/svg" xmlns:xlink="http://www.w3.org/1999/xlink" x="0px" y="0px"
	 viewBox="0 0 512 512" style="enable-background:new 0 0 512 512;" xml:space="preserve">
<circle style="fill:#E4EAF6;" cx="256" cy="176.552" r="132.414"/>
<g>
	<polygon style="fill:#464655;" points="273.655,176.552 238.345,176.552 220.69,459.034 291.31,459.034 	"/>
	<path style="fill:#464655;" d="M353.103,512H158.897c-4.875,0-8.828-3.953-8.828-8.828v-17.655c0-4.875,3.953-8.828,8.828-8.828
		h194.207c4.875,0,8.828,3.953,8.828,8.828v17.655C361.931,508.047,357.978,512,353.103,512z"/>
</g>
<path style="fill:#707487;" d="M315.651,459.034H196.349c-7.023,0-13.76,2.791-18.727,7.756l-9.898,9.899h176.552l-9.899-9.899
	C329.411,461.825,322.675,459.034,315.651,459.034z"/>
<g>
	<path style="fill:#00BEFF;" d="M255.658,144.473l67.588-77.245c6.063-6.93,16.725-7.285,23.236-0.774l0.026,0.026
		c17.841,17.841,16.868,47.052-2.12,63.667l-54.963,48.093"/>
	<path style="fill:#00BEFF;" d="M254.31,210.663l-67.588,77.245c-6.063,6.93-16.725,7.285-23.236,0.773l-0.026-0.026
		c-17.841-17.841-16.868-47.052,2.12-63.667l54.963-48.093"/>
	<path style="fill:#00BEFF;" d="M288.078,178.242l77.245,67.588c6.93,6.063,7.285,16.725,0.774,23.236l-0.026,0.026
		c-17.841,17.841-47.052,16.868-63.667-2.12l-48.093-54.963"/>
	<path style="fill:#00BEFF;" d="M221.889,176.894l-77.245-67.588c-6.93-6.063-7.285-16.725-0.774-23.236l0.026-0.026
		c17.841-17.841,47.052-16.868,63.667,2.12l48.093,54.963"/>
</g>
<circle style="fill:#464655;" cx="255.823" cy="177.567" r="35.31"/>
<path style="fill:#707487;" d="M256,0C158.65,0,79.448,79.198,79.448,176.552S158.65,353.103,256,353.103
	s176.552-79.198,176.552-176.552S353.35,0,256,0z M414.897,176.552c0,25.77-6.302,50.048-17.237,71.594l-124.004-71.594
	l124.004-71.594C408.595,126.504,414.897,150.782,414.897,176.552z M388.863,89.65l-124.035,71.613V18.102
	C316.687,20.973,361.973,48.678,388.863,89.65z M247.172,18.102v143.159L123.137,89.65
	C150.027,48.678,195.313,20.973,247.172,18.102z M114.34,104.958l124.004,71.594L114.34,248.146
	c-10.935-21.546-17.237-45.824-17.237-71.594S103.405,126.504,114.34,104.958z M123.137,263.454l124.035-71.613V335
	C195.313,332.13,150.027,304.426,123.137,263.454z M264.828,335.001v-143.16l124.035,71.612
	C361.973,304.426,316.687,332.13,264.828,335.001z"/>
<g>
	<circle style="fill:#00BEFF;" cx="256" cy="388.414" r="13.241"/>
	<circle style="fill:#00BEFF;" cx="256" cy="428.138" r="13.241"/>
</g>
<g>
</g>
<g>
</g>
<g>
</g>
<g>
</g>
<g>
</g>
<g>
</g>
<g>
</g>
<g>
</g>
<g>
</g>
<g>
</g>
<g>
</g>
<g>
</g>
<g>
</g>
<g>
</g>
<g>
</g>
</svg>
