<?xml version="1.0" encoding="iso-8859-1"?>
<!-- Generator: Adobe Illustrator 19.0.0, SVG Export Plug-In . SVG Version: 6.00 Build 0)  -->
<svg version="1.1" id="Layer_1" xmlns="http://www.w3.org/2000/svg" xmlns:xlink="http://www.w3.org/1999/xlink" x="0px" y="0px"
	 viewBox="0 0 512 512" style="enable-background:new 0 0 512 512;" xml:space="preserve">
<path style="fill:#CCC3A8;" d="M337.185,503.916H75.191c-7.145,0-12.935-5.79-12.935-12.935V21.019
	c0-7.144,5.789-12.935,12.935-12.935h361.618c7.143,0,12.935,5.79,12.935,12.935v469.962c0,7.144-5.792,12.935-12.935,12.935
	h-71.241"/>
<path style="fill:#C9B585;" d="M92.197,490.981V21.019c0-7.144,5.789-12.935,12.935-12.935h-21.92
	c-7.145,0-12.935,5.79-12.935,12.935v469.962c0,7.144,5.789,12.935,12.935,12.935h21.92
	C97.986,503.916,92.197,498.125,92.197,490.981z"/>
<path style="fill:#36A1CB;" d="M256,206.174c-27.518,0-49.824,22.307-49.824,49.826c0,27.516,22.305,49.824,49.824,49.824
	c27.516,0,49.824-22.307,49.824-49.824C305.824,228.482,283.516,206.174,256,206.174z M256,274.044
	c-9.966,0-18.046-8.08-18.046-18.044c0-9.964,8.08-18.046,18.046-18.046c9.964,0,18.044,8.082,18.044,18.046
	C274.044,265.964,265.964,274.044,256,274.044z"/>
<g>
	<path style="fill:#7C7A75;" d="M256,206.174c6.05,0,11.848,1.082,17.215,3.059V103.446c0-9.507-7.709-17.215-17.215-17.215
		c-9.509,0-17.217,7.707-17.217,17.215v105.79C244.15,207.256,249.948,206.174,256,206.174z"/>
	<path style="fill:#7C7A75;" d="M206.176,256c0-6.05,1.08-11.853,3.057-17.217H103.446c-9.507,0-17.215,7.709-17.215,17.217
		c0,9.507,7.707,17.217,17.215,17.217h105.788C207.256,267.85,206.176,262.052,206.176,256z"/>
	<path style="fill:#7C7A75;" d="M256,305.824c-6.052,0-11.85-1.082-17.217-3.057v105.788c0,9.507,7.707,17.215,17.217,17.215
		c9.505,0,17.215-7.707,17.215-17.215V302.767C267.848,304.742,262.05,305.824,256,305.824z"/>
	<path style="fill:#7C7A75;" d="M408.552,238.783H302.766c1.975,5.365,3.057,11.166,3.057,17.217c0,6.052-1.082,11.85-3.057,17.217
		h105.786c9.507,0,17.217-7.709,17.217-17.217C425.769,246.493,418.06,238.783,408.552,238.783z"/>
</g>
<g>
	<path style="fill:#FFB92E;" d="M273.215,142.902c49.389,7.457,88.425,46.491,95.88,95.88h33.704
		c-7.876-67.868-61.718-121.706-129.584-129.584V142.902z"/>
	<path style="fill:#FFB92E;" d="M142.902,238.783c7.455-49.389,46.491-88.423,95.88-95.88v-33.701
		c-67.868,7.876-121.708,61.714-129.584,129.582h33.704V238.783z"/>
	<path style="fill:#FFB92E;" d="M238.783,369.098c-49.389-7.455-88.425-46.491-95.88-95.88h-33.704
		c7.876,67.866,61.716,121.708,129.584,129.582L238.783,369.098L238.783,369.098z"/>
	<path style="fill:#FFB92E;" d="M394.287,308.257c4.198-11.103,7.097-22.845,8.511-35.04h-33.704
		c-7.455,49.389-46.491,88.425-95.88,95.88v33.702c46.588-5.406,86.569-32.474,109.605-70.87"/>
</g>
<g>
	<circle style="fill:#F5F5F5;" cx="403.673" cy="52.458" r="15.004"/>
	<circle style="fill:#F5F5F5;" cx="109.601" cy="52.458" r="15.004"/>
	<circle style="fill:#F5F5F5;" cx="403.673" cy="456.577" r="15.004"/>
	<circle style="fill:#F5F5F5;" cx="109.601" cy="456.577" r="15.004"/>
</g>
<g>
	<path style="fill:#6B6861;" d="M256.607,103.446c0-5.402,2.493-10.217,6.387-13.375c-2.959-2.398-6.723-3.841-10.829-3.841
		c-9.509,0-17.217,7.707-17.217,17.215v105.79c5.367-1.979,11.164-3.061,17.217-3.061c1.497,0,2.979,0.068,4.442,0.197V103.446
		L256.607,103.446z"/>
	<path style="fill:#6B6861;" d="M256.607,408.554V305.626c-1.463,0.129-2.945,0.197-4.442,0.197c-6.052,0-11.85-1.082-17.217-3.057
		v105.788c0,9.507,7.707,17.215,17.217,17.215c4.106,0,7.87-1.442,10.829-3.841C259.099,418.773,256.607,413.958,256.607,408.554z"
		/>
	<path style="fill:#6B6861;" d="M111.467,253.715c-5.402,0-10.217-2.493-13.375-6.388c-2.398,2.959-3.841,6.724-3.841,10.829
		c0,9.509,7.707,17.217,17.215,17.217h105.79c-1.979-5.367-3.061-11.164-3.061-17.217c0-1.497,0.068-2.978,0.198-4.441
		L111.467,253.715L111.467,253.715z"/>
	<path style="fill:#6B6861;" d="M416.576,253.715H313.649c0.128,1.463,0.196,2.945,0.196,4.441c0,6.052-1.082,11.85-3.057,17.217
		h105.788c9.507,0,17.215-7.707,17.215-17.217c0-4.105-1.442-7.87-3.841-10.829C426.794,251.222,421.979,253.715,416.576,253.715z"
		/>
</g>
<path style="fill:#3691C9;" d="M234.052,256c0-23.851,16.76-43.776,39.143-48.666c-3.442-0.751-7.012-1.159-10.679-1.159
	c-27.518,0-49.824,22.307-49.824,49.826c0,27.516,22.305,49.824,49.824,49.824c3.667,0,7.237-0.407,10.679-1.159
	C250.812,299.774,234.052,279.849,234.052,256z"/>
<g>
	<path style="fill:#231F20;" d="M140.096,371.904c1.579,1.578,3.649,2.367,5.717,2.367s4.138-0.789,5.717-2.367l0.122-0.122
		c22.153,19.947,49.76,33.235,79.08,38.043c0.665,13.361,11.744,24.026,25.269,24.026c13.527,0,24.607-10.672,25.267-24.038
		c29.49-4.847,56.975-18.281,79.027-38.088l0.178,0.178c1.578,1.578,3.648,2.367,5.716,2.367c2.069,0,4.138-0.789,5.717-2.368
		c3.157-3.157,3.157-8.275,0-11.432l-0.151-0.151c6.729-7.431,12.779-15.531,17.999-24.232c2.297-3.829,1.055-8.795-2.773-11.092
		c-3.828-2.295-8.793-1.055-11.092,2.773c-4.536,7.56-9.763,14.62-15.571,21.113l-12.193-12.193
		c13.942-15.867,23.419-34.773,27.73-55.388h17.57c-1.505,8.221-3.747,16.294-6.697,24.096c-1.579,4.176,0.527,8.842,4.703,10.421
		c4.173,1.578,8.841-0.526,10.421-4.703c3.644-9.642,6.305-19.653,7.968-29.847c13.366-0.662,24.036-11.743,24.036-25.269
		c0-13.523-10.665-24.603-24.026-25.269c-4.81-29.32-18.099-56.927-38.046-79.08l0.123-0.123c3.158-3.157,3.158-8.276,0.001-11.432
		c-3.157-3.158-8.276-3.157-11.432-0.001l-0.124,0.124c-22.153-19.948-49.761-33.236-79.081-38.048
		c-0.666-13.359-11.745-24.025-25.267-24.025c-13.524,0-24.604,10.666-25.269,24.027c-29.32,4.811-56.928,18.098-79.08,38.043
		l-0.122-0.122c-3.158-3.156-8.276-3.156-11.433,0c-3.157,3.158-3.157,8.276,0,11.433l0.122,0.122
		c-19.947,22.153-33.235,49.76-38.046,79.08c-13.361,0.666-24.025,11.746-24.025,25.269s10.665,24.603,24.025,25.269
		c4.811,29.32,18.099,56.928,38.047,79.081l-0.122,0.123C136.938,363.629,136.938,368.747,140.096,371.904z M243.689,216.113
		c0.586-0.181,1.178-0.349,1.774-0.506c0.13-0.034,0.263-0.065,0.393-0.097c0.504-0.126,1.012-0.245,1.523-0.352
		c0.177-0.037,0.354-0.071,0.53-0.107c0.47-0.093,0.942-0.177,1.416-0.253c0.204-0.032,0.406-0.065,0.611-0.095
		c0.457-0.067,0.916-0.124,1.378-0.176c0.215-0.024,0.428-0.051,0.643-0.071c0.473-0.045,0.95-0.079,1.428-0.109
		c0.198-0.012,0.396-0.029,0.594-0.039c0.669-0.032,1.342-0.052,2.02-0.052c0.678,0,1.351,0.019,2.02,0.052
		c0.198,0.01,0.396,0.027,0.593,0.039c0.478,0.03,0.955,0.064,1.428,0.109c0.215,0.02,0.428,0.046,0.641,0.07
		c0.462,0.052,0.924,0.109,1.382,0.177c0.202,0.029,0.401,0.061,0.601,0.093c0.481,0.078,0.958,0.163,1.434,0.257
		c0.17,0.033,0.341,0.067,0.51,0.102c0.524,0.11,1.044,0.232,1.562,0.361c0.116,0.029,0.235,0.056,0.351,0.086
		c0.626,0.164,1.248,0.338,1.863,0.53c0.005,0.001,0.011,0.003,0.015,0.004c13.69,4.268,24.377,15.413,28.003,29.373
		c0.021,0.078,0.038,0.156,0.057,0.234c0.14,0.552,0.268,1.109,0.386,1.67c0.031,0.149,0.06,0.299,0.089,0.447
		c0.098,0.494,0.186,0.99,0.266,1.489c0.03,0.189,0.06,0.378,0.088,0.568c0.068,0.467,0.127,0.937,0.18,1.409
		c0.023,0.209,0.049,0.416,0.069,0.625c0.046,0.476,0.08,0.957,0.11,1.438c0.012,0.196,0.029,0.39,0.039,0.586
		c0.032,0.67,0.051,1.343,0.051,2.021s-0.019,1.351-0.051,2.02c-0.01,0.197-0.027,0.393-0.039,0.59
		c-0.03,0.48-0.064,0.958-0.11,1.435c-0.021,0.211-0.046,0.42-0.069,0.631c-0.053,0.469-0.111,0.937-0.179,1.401
		c-0.028,0.193-0.058,0.384-0.089,0.577c-0.08,0.496-0.167,0.988-0.264,1.478c-0.03,0.152-0.059,0.305-0.092,0.457
		c-0.118,0.558-0.246,1.112-0.385,1.663c-0.02,0.079-0.039,0.158-0.059,0.238c-3.626,13.958-14.31,25.101-28.001,29.37
		c-0.011,0.003-0.022,0.006-0.031,0.01c-0.578,0.18-1.162,0.344-1.751,0.498c-0.267,0.069-0.537,0.133-0.805,0.197
		c-0.323,0.079-0.647,0.154-0.973,0.225c-0.398,0.085-0.797,0.164-1.196,0.237c-0.191,0.036-0.382,0.07-0.573,0.102
		c-0.485,0.082-0.97,0.157-1.457,0.223c-0.092,0.012-0.184,0.023-0.276,0.035c-3.538,0.449-7.129,0.449-10.667,0.001
		c-0.102-0.013-0.205-0.025-0.306-0.039c-0.477-0.064-0.953-0.138-1.427-0.219c-0.205-0.035-0.409-0.071-0.611-0.11
		c-0.387-0.071-0.773-0.148-1.158-0.23c-0.345-0.074-0.688-0.155-1.028-0.238c-0.25-0.06-0.5-0.119-0.749-0.183
		c-14.549-3.827-26.019-15.326-29.799-29.892c-0.017-0.065-0.031-0.13-0.049-0.195c-0.143-0.566-0.276-1.136-0.396-1.711
		c-0.029-0.138-0.056-0.277-0.083-0.415c-0.1-0.503-0.191-1.011-0.273-1.521c-0.029-0.181-0.057-0.361-0.084-0.542
		c-0.07-0.475-0.129-0.955-0.183-1.436c-0.023-0.2-0.046-0.401-0.066-0.603c-0.046-0.483-0.081-0.969-0.111-1.457
		c-0.012-0.191-0.028-0.382-0.038-0.573c-0.032-0.67-0.052-1.344-0.052-2.023s0.019-1.353,0.052-2.024
		c0.009-0.19,0.026-0.378,0.038-0.568c0.03-0.49,0.065-0.98,0.112-1.466c0.019-0.197,0.043-0.393,0.065-0.59
		c0.054-0.487,0.114-0.972,0.185-1.454c0.026-0.175,0.053-0.348,0.081-0.522c0.083-0.52,0.176-1.037,0.278-1.55
		c0.026-0.128,0.051-0.257,0.078-0.385c0.123-0.59,0.258-1.175,0.406-1.755c0.013-0.05,0.024-0.1,0.037-0.15
		c3.617-13.965,14.302-25.116,27.992-29.391C243.617,216.134,243.654,216.125,243.689,216.113z M281.299,152.751
		c16.386,4.031,31.352,11.938,43.834,22.681l-34.324,34.321c-2.962-2.236-6.145-4.193-9.51-5.834V152.751z M281.299,308.078
		c3.364-1.641,6.547-3.598,9.509-5.834l34.326,34.324c-12.483,10.743-27.449,18.65-43.835,22.681V308.078z M302.242,221.187
		l34.324-34.321c10.743,12.483,18.65,27.448,22.681,43.834h-51.169C306.436,227.333,304.479,224.15,302.242,221.187z
		 M230.698,359.249c-16.386-4.031-31.352-11.937-43.835-22.681l34.325-34.326c2.962,2.236,6.145,4.193,9.51,5.835V359.249z
		 M230.698,203.921c-3.364,1.642-6.547,3.599-9.509,5.835l-34.324-34.324c12.482-10.743,27.448-18.649,43.833-22.68V203.921z
		 M209.756,221.19c-2.236,2.962-4.192,6.144-5.834,9.509h-51.171c4.031-16.386,11.937-31.351,22.681-43.834L209.756,221.19z
		 M209.756,290.809l-34.325,34.327c-10.743-12.483-18.649-27.448-22.68-43.834h51.172
		C205.564,284.665,207.52,287.847,209.756,290.809z M175.31,348.123c15.867,13.943,34.774,23.421,55.389,27.731v17.576
		c-25.848-4.688-49.071-16.333-67.747-32.948L175.31,348.123z M265.131,408.554c0,5.035-4.096,9.131-9.131,9.131
		c-5.036,0-9.133-4.096-9.133-9.131v-5.756v-33.702V313.19c0.081,0.013,0.163,0.022,0.243,0.033c0.133,0.021,0.267,0.036,0.4,0.055
		c0.733,0.108,1.469,0.202,2.209,0.281c0.289,0.031,0.579,0.058,0.869,0.085c0.609,0.056,1.22,0.102,1.831,0.14
		c0.309,0.019,0.617,0.04,0.927,0.054c0.798,0.036,1.596,0.057,2.395,0.06c0.086,0,0.171,0.007,0.258,0.007
		c0.086,0,0.17-0.007,0.257-0.007c0.802-0.003,1.604-0.025,2.405-0.061c0.3-0.013,0.598-0.035,0.897-0.053
		c0.624-0.038,1.247-0.085,1.869-0.142c0.281-0.026,0.563-0.053,0.843-0.083c0.737-0.08,1.472-0.174,2.204-0.281
		c0.14-0.02,0.28-0.037,0.42-0.058c0.078-0.012,0.157-0.02,0.235-0.032v55.906v33.702v5.758H265.131z M281.299,393.414v-17.56
		c20.615-4.312,39.522-13.79,55.39-27.732l12.163,12.162C329.855,377.144,306.447,388.773,281.299,393.414z M336.568,325.134
		l-34.325-34.324c2.236-2.963,4.193-6.145,5.835-9.51h51.17C355.215,297.688,347.31,312.652,336.568,325.134z M417.685,256
		c0,5.036-4.097,9.133-9.133,9.133h-5.754h-33.704H313.19c0.013-0.08,0.022-0.162,0.033-0.241c0.021-0.13,0.036-0.263,0.055-0.395
		c0.11-0.745,0.205-1.493,0.286-2.243c0.028-0.262,0.053-0.526,0.078-0.789c0.061-0.655,0.111-1.313,0.151-1.973
		c0.015-0.262,0.033-0.524,0.046-0.787c0.041-0.899,0.069-1.8,0.069-2.704c0-0.904-0.027-1.807-0.069-2.706
		c-0.012-0.263-0.03-0.523-0.046-0.785c-0.039-0.66-0.089-1.318-0.151-1.975c-0.025-0.263-0.05-0.526-0.078-0.788
		c-0.081-0.749-0.176-1.496-0.286-2.241c-0.019-0.133-0.034-0.266-0.055-0.398c-0.012-0.08-0.02-0.161-0.033-0.24h55.904h33.704
		h5.754C413.588,246.867,417.685,250.964,417.685,256z M393.429,230.698h-17.577c-4.311-20.615-13.788-39.522-27.731-55.388
		l12.358-12.357C377.094,181.629,388.741,204.852,393.429,230.698z M336.688,163.877c-15.867-13.943-34.773-23.421-55.389-27.732
		v-17.576c25.848,4.689,49.071,16.337,67.747,32.951L336.688,163.877z M246.867,103.446c0-5.035,4.097-9.131,9.133-9.131
		c5.035,0,9.131,4.096,9.131,9.131v5.754v33.704v55.904c-0.078-0.012-0.156-0.02-0.235-0.032c-0.141-0.022-0.285-0.038-0.427-0.059
		c-0.728-0.107-1.457-0.2-2.19-0.279c-0.287-0.031-0.575-0.058-0.862-0.085c-0.617-0.057-1.234-0.103-1.854-0.141
		c-0.301-0.018-0.6-0.039-0.901-0.053c-0.811-0.037-1.621-0.058-2.433-0.061c-0.077,0-0.152-0.005-0.229-0.005
		c-0.073,0-0.144,0.005-0.218,0.005c-0.817,0.003-1.633,0.025-2.448,0.063c-0.299,0.014-0.595,0.034-0.891,0.053
		c-0.622,0.038-1.242,0.084-1.862,0.142c-0.288,0.027-0.577,0.054-0.863,0.085c-0.715,0.077-1.426,0.168-2.135,0.272
		c-0.165,0.024-0.331,0.043-0.495,0.068c-0.073,0.012-0.147,0.019-0.22,0.03v-55.905v-33.702v-5.756H246.867z M230.698,118.571
		v17.575c-20.616,4.312-39.522,13.788-55.388,27.731l-12.358-12.358C181.628,134.906,204.852,123.259,230.698,118.571z
		 M151.519,162.952l12.358,12.358c-13.943,15.866-23.421,34.773-27.731,55.388h-17.577
		C123.257,204.852,134.903,181.628,151.519,162.952z M94.315,256c0-5.036,4.096-9.133,9.131-9.133h5.754h33.704h55.905
		c-0.014,0.089-0.024,0.179-0.037,0.268c-0.014,0.091-0.024,0.182-0.038,0.274c-0.116,0.783-0.216,1.567-0.3,2.355
		c-0.027,0.25-0.051,0.501-0.074,0.752c-0.063,0.664-0.113,1.33-0.152,1.998c-0.015,0.259-0.033,0.517-0.045,0.777
		c-0.041,0.9-0.069,1.802-0.069,2.708c0,0.904,0.027,1.807,0.069,2.706c0.012,0.262,0.03,0.523,0.046,0.784
		c0.04,0.662,0.089,1.322,0.151,1.98c0.025,0.26,0.049,0.52,0.077,0.778c0.081,0.757,0.178,1.511,0.289,2.263
		c0.018,0.125,0.032,0.252,0.052,0.376c0.013,0.082,0.022,0.164,0.033,0.246h-55.906h-33.704h-5.755
		C98.411,265.133,94.315,261.036,94.315,256z M118.569,281.302h17.577c4.311,20.615,13.788,39.522,27.731,55.389l-12.358,12.358
		C134.903,330.373,123.257,307.15,118.569,281.302z"/>
	<path style="fill:#231F20;" d="M436.809,0H75.191c-11.59,0-21.019,9.429-21.019,21.019v469.962c0,11.59,9.429,21.019,21.019,21.019
		h261.995c4.466,0,8.084-3.618,8.084-8.084c0-4.466-3.618-8.084-8.084-8.084H75.191c-2.674,0-4.851-2.176-4.851-4.851V21.019
		c0-2.674,2.176-4.851,4.851-4.851h361.618c2.674,0,4.851,2.176,4.851,4.851v469.962c0,2.674-2.176,4.851-4.851,4.851h-71.241
		c-4.466,0-8.084,3.618-8.084,8.084c0,4.466,3.618,8.084,8.084,8.084h71.241c11.59,0,21.019-9.429,21.019-21.019V21.019
		C457.828,9.429,448.399,0,436.809,0z"/>
	<path style="fill:#231F20;" d="M426.757,52.458c0-12.731-10.358-23.089-23.089-23.089s-23.089,10.358-23.089,23.089
		s10.358,23.089,23.089,23.089S426.757,65.189,426.757,52.458z M396.748,52.458c0-3.816,3.104-6.92,6.92-6.92s6.92,3.104,6.92,6.92
		s-3.104,6.92-6.92,6.92S396.748,56.274,396.748,52.458z"/>
	<path style="fill:#231F20;" d="M132.686,52.458c0-12.731-10.358-23.089-23.089-23.089S86.509,39.727,86.509,52.458
		s10.358,23.089,23.089,23.089S132.686,65.189,132.686,52.458z M102.677,52.458c0-3.816,3.104-6.92,6.92-6.92s6.92,3.104,6.92,6.92
		s-3.104,6.92-6.92,6.92S102.677,56.274,102.677,52.458z"/>
	<path style="fill:#231F20;" d="M403.668,433.486c-12.731,0-23.089,10.358-23.089,23.089c0,12.731,10.358,23.089,23.089,23.089
		s23.089-10.358,23.089-23.089C426.757,443.843,416.399,433.486,403.668,433.486z M403.668,463.495c-3.816,0-6.92-3.104-6.92-6.92
		c0-3.816,3.104-6.92,6.92-6.92s6.92,3.104,6.92,6.92C410.588,460.39,407.484,463.495,403.668,463.495z"/>
	<path style="fill:#231F20;" d="M86.509,456.574c0,12.731,10.358,23.089,23.089,23.089s23.089-10.358,23.089-23.089
		c0-12.731-10.358-23.089-23.089-23.089S86.509,443.844,86.509,456.574z M116.518,456.574c0,3.816-3.104,6.92-6.92,6.92
		s-6.92-3.104-6.92-6.92c0-3.816,3.104-6.92,6.92-6.92S116.518,452.759,116.518,456.574z"/>
	<path style="fill:#231F20;" d="M256,282.128c14.407,0,26.128-11.721,26.128-26.128c0-14.408-11.721-26.13-26.128-26.13
		c-14.408,0-26.13,11.722-26.13,26.13C229.87,270.407,241.592,282.128,256,282.128z M256,246.038c5.492,0,9.96,4.469,9.96,9.962
		c0,5.492-4.469,9.96-9.96,9.96c-5.493,0-9.962-4.469-9.962-9.96C246.038,250.507,250.507,246.038,256,246.038z"/>
</g>
<g>
</g>
<g>
</g>
<g>
</g>
<g>
</g>
<g>
</g>
<g>
</g>
<g>
</g>
<g>
</g>
<g>
</g>
<g>
</g>
<g>
</g>
<g>
</g>
<g>
</g>
<g>
</g>
<g>
</g>
</svg>
