<?xml version="1.0" encoding="iso-8859-1"?>
<!-- Generator: Adobe Illustrator 18.0.0, SVG Export Plug-In . SVG Version: 6.00 Build 0)  -->
<!DOCTYPE svg PUBLIC "-//W3C//DTD SVG 1.1//EN" "http://www.w3.org/Graphics/SVG/1.1/DTD/svg11.dtd">
<svg version="1.1" id="Capa_1" xmlns="http://www.w3.org/2000/svg" xmlns:xlink="http://www.w3.org/1999/xlink" x="0px" y="0px"
	 viewBox="0 0 59 59" style="enable-background:new 0 0 59 59;" xml:space="preserve">
<path style="fill:#8E283E;" d="M24,19.872c-0.552,0-1-0.447-1-1V17c0-2.206-1.794-4-4-4s-4,1.794-4,4v1.872c0,0.553-0.448,1-1,1
	s-1-0.447-1-1V17c0-3.309,2.691-6,6-6s6,2.691,6,6v1.872C25,19.425,24.552,19.872,24,19.872z"/>
<path style="fill:#C7CAC7;" d="M55.012,1.117C50.638-1.754,46,1.343,46,5.5V13v38h4V13V5.5C50,4.673,50.673,4,51.5,4
	S53,4.673,53,5.5V9h4V4.893C57,3.385,56.273,1.944,55.012,1.117z"/>
<rect x="4" y="48" style="fill:#38454F;" width="4" height="10"/>
<rect x="30" y="48" style="fill:#38454F;" width="4" height="10"/>
<path style="fill:#CB465F;" d="M19,18c-8.284,0-15,6.716-15,15v15h4v8h22v-8h4V33C34,24.716,27.284,18,19,18z"/>
<path style="fill:#8E283E;" d="M26,54H12c-0.552,0-1-0.447-1-1s0.448-1,1-1h14c0.552,0,1,0.447,1,1S26.552,54,26,54z"/>
<path style="fill:#8E283E;" d="M26,50H12c-0.552,0-1-0.447-1-1s0.448-1,1-1h14c0.552,0,1,0.447,1,1S26.552,50,26,50z"/>
<ellipse style="fill:#8E283E;" cx="19" cy="33" rx="9" ry="10"/>
<circle style="fill:#ED8A19;" cx="19" cy="30" r="3"/>
<rect x="40" y="55" style="fill:#556080;" width="16" height="3"/>
<rect x="44" y="51" style="fill:#38454F;" width="8" height="4"/>
<rect x="46" y="30" style="fill:#38454F;" width="4" height="4"/>
<path style="fill:#556080;" d="M4,33c0-1.752,0.316-3.427,0.868-4.99C1.978,29.508,0,32.52,0,36c0,3.12,1.589,5.868,4,7.482V33z"/>
<line style="fill:none;stroke:#38454F;stroke-width:2;stroke-linecap:round;stroke-miterlimit:10;" x1="38" y1="58" x2="58" y2="58"/>
<g>
	<path style="fill:#556080;" d="M53,11.312c0,2.992-1.075,5.869-3,8.132v5.728l3.321-3.321C55.677,19.495,57,16.3,57,12.969V9h-4
		V11.312z"/>
	<polygon style="fill:#556080;" points="34,35.515 34,41.172 46,29.172 46,23.515 	"/>
</g>
<g>
</g>
<g>
</g>
<g>
</g>
<g>
</g>
<g>
</g>
<g>
</g>
<g>
</g>
<g>
</g>
<g>
</g>
<g>
</g>
<g>
</g>
<g>
</g>
<g>
</g>
<g>
</g>
<g>
</g>
</svg>
