<?xml version="1.0" encoding="iso-8859-1"?>
<!-- Generator: Adobe Illustrator 18.0.0, SVG Export Plug-In . SVG Version: 6.00 Build 0)  -->
<!DOCTYPE svg PUBLIC "-//W3C//DTD SVG 1.1//EN" "http://www.w3.org/Graphics/SVG/1.1/DTD/svg11.dtd">
<svg version="1.1" id="Capa_1" xmlns="http://www.w3.org/2000/svg" xmlns:xlink="http://www.w3.org/1999/xlink" x="0px" y="0px"
	 viewBox="0 0 58 58" style="enable-background:new 0 0 58 58;" xml:space="preserve">
<path style="fill:#556080;" d="M58,46H0l0.782-1.173c0.761-1.141,2.042-3,3.414-2.827H58V46z"/>
<path style="fill:#7383BF;" d="M55.267,25.967c-1.118,0.121-2.318-0.052-3.713-1.113c-1.483-1.128-2.488-2.842-2.371-4.702
	c0.158-2.526,2.023-4.587,4.454-5.051L53.172,12L37.8,14.402C27.402,16.027,16.417,23.083,14.006,35L14,35.012
	c0,0,0.016,0.072,0.001,0.192c-3.851,1.212-6.544,2.014-9.21,5.569L4,42h52l0.701-3.505C57.546,34.272,57.044,29.89,55.267,25.967z
	 M21.266,31l1.672-1.701c2.521-5.299,9.552-10.02,15.48-10.945l7.22-1.128l-0.281,1.405c-0.083,0.415-0.139,0.844-0.166,1.272
	c-0.143,2.286,0.636,4.58,2.191,6.459L48.737,28L21.266,31z"/>
<path style="fill:#C7CAC7;" d="M37.8,14.402l0.2-0.031V12h-5v3.555C34.557,15.055,36.157,14.658,37.8,14.402z"/>
<polygon style="fill:#556080;" points="31.172,29.918 42.172,28.717 42.172,25 31.172,25 "/>
<path style="fill:#C7CAC7;" d="M25,19.341v-2.2C25,16.511,24.489,16,23.859,16h-2.719C20.511,16,20,16.511,20,17.141V23h0.525
	C21.888,21.626,23.391,20.403,25,19.341z"/>
<path style="fill:#EFCE4A;" d="M4.79,40.773L4,42h52l0.701-3.505c0.535-2.675,0.526-5.414-0.001-8.059l-42.699,4.769
	C10.149,36.417,7.457,37.218,4.79,40.773z"/>
<g>
</g>
<g>
</g>
<g>
</g>
<g>
</g>
<g>
</g>
<g>
</g>
<g>
</g>
<g>
</g>
<g>
</g>
<g>
</g>
<g>
</g>
<g>
</g>
<g>
</g>
<g>
</g>
<g>
</g>
</svg>
