<?xml version="1.0" encoding="iso-8859-1"?>
<!-- Generator: Adobe Illustrator 19.0.0, SVG Export Plug-In . SVG Version: 6.00 Build 0)  -->
<svg version="1.1" id="Layer_1" xmlns="http://www.w3.org/2000/svg" xmlns:xlink="http://www.w3.org/1999/xlink" x="0px" y="0px"
	 viewBox="0 0 496 496" style="enable-background:new 0 0 496 496;" xml:space="preserve">
<g>
	<path style="fill:#2C4249;" d="M66.4,418.8c0,5.6-4,9.6-9.6,9.6h-20c-5.6,0-9.6-4-9.6-9.6v-18.4c0-5.6,4-9.6,9.6-9.6h20
		c5.6,0,9.6,4,9.6,9.6C66.4,400.4,66.4,418.8,66.4,418.8z"/>
	<path style="fill:#2C4249;" d="M468,418.8c0,5.6-4,9.6-9.6,9.6h-20c-5.6,0-9.6-4-9.6-9.6v-18.4c0-5.6,4-9.6,9.6-9.6h20
		c5.6,0,9.6,4,9.6,9.6V418.8z"/>
</g>
<path style="fill:#6DA2A5;" d="M496,393.2c0,8.8-7.2,15.2-15.2,15.2H15.2c-8.8,0-15.2-7.2-15.2-15.2V99.6c0-8.8,7.2-15.2,15.2-15.2
	h465.6c8.8,0,15.2,7.2,15.2,15.2L496,393.2L496,393.2z"/>
<path style="fill:#BAE2E8;" d="M496,376.4c0,8.8-7.2,15.2-15.2,15.2H15.2c-8,0-15.2-7.2-15.2-15.2V82.8C0,74,7.2,67.6,15.2,67.6
	h465.6c8.8,0,15.2,7.2,15.2,15.2L496,376.4L496,376.4z"/>
<path style="fill:#A3CAD3;" d="M496,385.2c0,8.8-7.2,15.2-15.2,15.2H15.2c-8.8,0-15.2-7.2-15.2-15.2V91.6c0-8.8,7.2-15.2,15.2-15.2
	h465.6c8.8,0,15.2,7.2,15.2,15.2L496,385.2L496,385.2z"/>
<path style="fill:#86B5BC;" d="M0,91.6c0-8.8,7.2-15.2,15.2-15.2h465.6c8.8,0,15.2,7.2,15.2,15.2v293.6c0,8.8-7.2,15.2-15.2,15.2"/>
<path style="fill:#77989E;" d="M377.6,368.4c0,7.2-5.6,12.8-12.8,12.8h-320c-7.2,0-12.8-5.6-12.8-12.8V117.2
	c0-7.2,5.6-12.8,12.8-12.8h320c7.2,0,12.8,5.6,12.8,12.8V368.4z"/>
<path style="fill:#405963;" d="M377.6,358.8c0,7.2-5.6,12.8-12.8,12.8h-320c-7.2,0-12.8-5.6-12.8-12.8V117.2
	c0-7.2,5.6-12.8,12.8-12.8h320c7.2,0,12.8,5.6,12.8,12.8V358.8z"/>
<path style="fill:#2C4249;" d="M32.8,117.2c0-7.2,5.6-12.8,12.8-12.8h320c7.2,0,12.8,5.6,12.8,12.8V358c0,7.2-5.6,12.8-12.8,12.8"/>
<rect x="404" y="67.6" style="fill:#86B7BC;" width="8" height="333.6"/>
<rect x="404" y="75.6" style="fill:#6DA2A5;" width="8" height="324"/>
<path style="fill:#137D8E;" d="M482.4,282c0,16-12.8,28.8-28.8,28.8S424.8,298,424.8,282s12.8-30.4,28.8-30.4S482.4,266,482.4,282z"
	/>
<path style="fill:#72A2A5;" d="M482.4,282c0,16-12.8,41.6-28.8,41.6s-28.8-26.4-28.8-41.6c0-16,12.8-27.2,28.8-27.2
	C469.6,254.8,482.4,266,482.4,282z"/>
<path style="fill:#185B6B;" d="M482.4,282c0,16-12.8,28.8-28.8,28.8S424.8,298,424.8,282s12.8-28.8,28.8-28.8S482.4,266,482.4,282z"
	/>
<path style="fill:#073B44;" d="M473.6,262c11.2,11.2,11.2,29.6,0,40.8c-11.2,11.2-29.6,11.2-40.8,0"/>
<path style="fill:#B8D7E0;" d="M469.6,267.6c0,0.8-0.8,2.4-2.4,2.4c-0.8,0-2.4-0.8-2.4-2.4c0-0.8,0.8-2.4,2.4-2.4
	C468.8,266,469.6,266.8,469.6,267.6z"/>
<path style="fill:#3CA589;" d="M430.4,114v74.4c0,4.8,4,8.8,8.8,8.8h28c4.8,0,8.8-4,8.8-8.8V114c0-4.8-4-8.8-8.8-8.8h-28
	C434.4,105.2,430.4,109.2,430.4,114z"/>
<path style="fill:#319385;" d="M467.2,197.2c4.8,0,8.8-4,8.8-8.8V114c0-4.8-4-8.8-8.8-8.8h-28c-4.8,0-8.8,4-8.8,8.8"/>
<path style="fill:#72A2A5;" d="M436.8,228.4c0,2.4-2.4,4.8-4.8,4.8h-5.6c-2.4,0-4.8-2.4-4.8-4.8v-5.6c0-2.4,2.4-4.8,4.8-4.8h5.6
	c2.4,0,4.8,2.4,4.8,4.8V228.4z"/>
<path style="fill:#3C5960;" d="M436.8,226c0,2.4-2.4,4.8-4.8,4.8h-5.6c-2.4,0-4.8-2.4-4.8-4.8v-5.6c0-2.4,2.4-4.8,4.8-4.8h5.6
	c2.4,0,4.8,2.4,4.8,4.8V226z"/>
<path style="fill:#334449;" d="M432,216.4c2.4,0,4.8,2.4,4.8,4.8v5.6c0,2.4-2.4,4.8-4.8,4.8h-5.6c-2.4,0-4.8-2.4-4.8-4.8"/>
<path style="fill:#72A2A5;" d="M460.8,228.4c0,2.4-2.4,4.8-4.8,4.8h-5.6c-2.4,0-4.8-2.4-4.8-4.8v-5.6c0-2.4,2.4-4.8,4.8-4.8h5.6
	c2.4,0,4.8,2.4,4.8,4.8V228.4z"/>
<path style="fill:#3C5960;" d="M460.8,226c0,2.4-2.4,4.8-4.8,4.8h-5.6c-2.4,0-4.8-2.4-4.8-4.8v-5.6c0-2.4,2.4-4.8,4.8-4.8h5.6
	c2.4,0,4.8,2.4,4.8,4.8V226z"/>
<path style="fill:#334449;" d="M456,216.4c2.4,0,4.8,2.4,4.8,4.8v5.6c0,2.4-2.4,4.8-4.8,4.8h-5.6c-2.4,0-4.8-2.4-4.8-4.8"/>
<path style="fill:#72A2A5;" d="M484.8,228.4c0,2.4-2.4,4.8-4.8,4.8h-5.6c-2.4,0-4.8-2.4-4.8-4.8v-5.6c0-2.4,2.4-4.8,4.8-4.8h5.6
	c2.4,0,4.8,2.4,4.8,4.8V228.4z"/>
<path style="fill:#3C5960;" d="M484.8,226c0,2.4-2.4,4.8-4.8,4.8h-5.6c-2.4,0-4.8-2.4-4.8-4.8v-5.6c0-2.4,2.4-4.8,4.8-4.8h5.6
	c2.4,0,4.8,2.4,4.8,4.8V226z"/>
<path style="fill:#334449;" d="M480,216.4c2.4,0,4.8,2.4,4.8,4.8v5.6c0,2.4-2.4,4.8-4.8,4.8h-5.6c-2.4,0-4.8-2.4-4.8-4.8"/>
<g>
	<rect x="430.4" y="341.2" style="fill:#6F9FAA;" width="45.6" height="3.2"/>
	<rect x="430.4" y="350" style="fill:#6F9FAA;" width="45.6" height="3.2"/>
	<rect x="430.4" y="358" style="fill:#6F9FAA;" width="45.6" height="3.2"/>
</g>
<path style="fill:#2C4249;" d="M32.8,319.6v39.2c0,7.2,5.6,12.8,12.8,12.8h320c7.2,0,12.8-5.6,12.8-12.8v-39.2H32.8z"/>
<path style="fill:#1C2F33;" d="M365.6,370.8c7.2,0,12.8-5.6,12.8-12.8v-38.4h-80L365.6,370.8z"/>
<g>
</g>
<g>
</g>
<g>
</g>
<g>
</g>
<g>
</g>
<g>
</g>
<g>
</g>
<g>
</g>
<g>
</g>
<g>
</g>
<g>
</g>
<g>
</g>
<g>
</g>
<g>
</g>
<g>
</g>
</svg>
