<?xml version="1.0" encoding="iso-8859-1"?>
<!-- Generator: Adobe Illustrator 19.0.0, SVG Export Plug-In . SVG Version: 6.00 Build 0)  -->
<svg version="1.1" id="Layer_1" xmlns="http://www.w3.org/2000/svg" xmlns:xlink="http://www.w3.org/1999/xlink" x="0px" y="0px"
	 viewBox="0 0 512 512" style="enable-background:new 0 0 512 512;" xml:space="preserve">
<path style="fill:#CFDCE5;" d="M512,88.124v335.752c0,15.338-12.437,27.775-27.775,27.775H27.775
	C12.437,451.651,0,439.213,0,423.876V88.124c0-15.35,12.437-27.775,27.775-27.775h456.45C499.563,60.349,512,72.774,512,88.124z"/>
<circle style="fill:#415E72;" cx="185.616" cy="255.994" r="152.927"/>
<path style="fill:#BAC6CC;" d="M185.622,418.031c-89.345,0-162.032-72.687-162.032-162.032S96.277,93.966,185.622,93.966
	s162.032,72.687,162.032,162.032S274.967,418.031,185.622,418.031z M185.622,112.167c-79.309,0-143.831,64.522-143.831,143.831
	s64.522,143.831,143.831,143.831s143.831-64.522,143.831-143.831S264.931,112.167,185.622,112.167z"/>
<g>
	<path style="fill:#FF6F52;" d="M308.268,254.289c0,35.796-36.827,59.761-69.553,45.248l-32.216-14.27
		c9.125-6.516,15.083-17.194,15.083-29.268c0-0.57-0.012-1.141-0.049-1.711L308.268,254.289L308.268,254.289z"/>
	<path style="fill:#FF6F52;" d="M187.315,291.905v86.747c-35.784,0-59.748-36.839-45.248-69.565l14.27-32.228
		c6.516,9.137,17.206,15.095,29.292,15.095C186.198,291.953,186.757,291.941,187.315,291.905z"/>
	<path style="fill:#FF6F52;" d="M164.757,226.72c-9.137,6.504-15.095,17.194-15.095,29.28c0,0.57,0.012,1.141,0.049,1.699h-0.012
		H62.964c0-35.796,36.827-59.761,69.553-45.26l32.228,14.27L164.757,226.72z"/>
	<path style="fill:#FF6F52;" d="M183.917,220.083v-86.747c35.784,0,59.749,36.827,45.248,69.553l-14.27,32.228
		c-6.516-9.137-17.194-15.083-29.268-15.083C185.058,220.034,184.487,220.047,183.917,220.083z"/>
	<path style="fill:#FF6F52;" d="M183.917,220.083c0.57-0.036,1.141-0.049,1.711-0.049c12.073,0,22.752,5.946,29.268,15.083
		c3.907,5.448,6.31,12.049,6.637,19.172c0.036,0.57,0.049,1.141,0.049,1.711c0,12.073-5.958,22.751-15.083,29.268h-0.012
		c-5.448,3.907-12.037,6.322-19.172,6.637c-0.558,0.036-1.116,0.049-1.687,0.049c-12.086,0-22.776-5.958-29.292-15.095
		c-3.895-5.448-6.298-12.037-6.625-19.16c-0.036-0.558-0.049-1.128-0.049-1.699c0-12.086,5.958-22.776,15.095-29.28
		C170.206,222.813,176.794,220.411,183.917,220.083z"/>
</g>
<path style="fill:#E25749;" d="M185.628,301.054c-14.535,0-28.257-7.069-36.701-18.911c-5.017-7.02-7.89-15.3-8.303-23.946
	c-0.045-0.723-0.062-1.461-0.062-2.197c0-14.544,7.073-28.262,18.918-36.694c6.998-5.017,15.282-7.897,23.939-8.311
	c0.735-0.046,1.473-0.062,2.208-0.062c14.527,0,28.237,7.066,36.678,18.9c5.024,7.004,7.903,15.295,8.316,23.964
	c0.045,0.734,0.061,1.468,0.061,2.204c0,14.516-7.063,28.225-18.894,36.673c-0.106,0.076-0.214,0.149-0.322,0.22
	c-6.971,4.908-15.142,7.706-23.66,8.1C187.085,301.037,186.365,301.054,185.628,301.054z M185.628,229.135
	c-0.375,0-0.75,0.005-1.125,0.029c-0.056,0.004-0.112,0.006-0.167,0.01c-5.162,0.237-10.098,1.946-14.275,4.941
	c-7.084,5.043-11.298,13.218-11.298,21.885c0,0.373,0.006,0.746,0.029,1.11c0.004,0.057,0.006,0.114,0.01,0.17
	c0.237,5.159,1.945,10.099,4.937,14.286c5.043,7.071,13.223,11.287,21.889,11.287c0.371,0,0.735-0.006,1.098-0.029
	c0.062-0.004,0.124-0.007,0.186-0.01c5.146-0.228,10.081-1.937,14.27-4.941c0.092-0.066,0.184-0.13,0.278-0.192
	c6.907-5.053,11.02-13.133,11.02-21.68c0-0.379-0.006-0.757-0.029-1.136c-0.004-0.052-0.006-0.104-0.008-0.158
	c-0.238-5.17-1.946-10.11-4.942-14.286C202.456,233.347,194.285,229.135,185.628,229.135z"/>
<g>
	<rect x="379.313" y="108.431" style="fill:#415E72;" width="99.9" height="18.201"/>
	<rect x="379.313" y="178.821" style="fill:#415E72;" width="99.9" height="18.201"/>
	<rect x="379.313" y="143.62" style="fill:#415E72;" width="99.9" height="18.201"/>
</g>
<g>
</g>
<g>
</g>
<g>
</g>
<g>
</g>
<g>
</g>
<g>
</g>
<g>
</g>
<g>
</g>
<g>
</g>
<g>
</g>
<g>
</g>
<g>
</g>
<g>
</g>
<g>
</g>
<g>
</g>
</svg>
